<svg xmlns="http://www.w3.org/2000/svg" xmlns:xlink="http://www.w3.org/1999/xlink" width="708.4" height="873.354" viewBox="0 0 708.4 873.354">
  <defs>
    <linearGradient id="linear-gradient" x1="1.453" y1="0.034" x2="-0.327" y2="0.753" gradientUnits="objectBoundingBox">
      <stop offset="0" stop-color="#fff"/>
      <stop offset="1" stop-color="#fff" stop-opacity="0"/>
    </linearGradient>
    <linearGradient id="linear-gradient-2" x1="1.926" y1="0.005" x2="0.146" y2="0.724" xlink:href="#linear-gradient"/>
    <linearGradient id="linear-gradient-5" x1="1.018" y1="0.198" x2="0.064" y2="0.755" xlink:href="#linear-gradient"/>
    <linearGradient id="linear-gradient-6" x1="0.343" y1="0.005" x2="0.648" y2="0.966" xlink:href="#linear-gradient"/>
    <linearGradient id="linear-gradient-8" x1="0.343" y1="0.006" x2="0.648" y2="0.966" xlink:href="#linear-gradient"/>
    <linearGradient id="linear-gradient-9" x1="0.782" y1="0.313" x2="0.265" y2="0.656" xlink:href="#linear-gradient"/>
    <linearGradient id="linear-gradient-10" x1="0.75" y1="0.355" x2="0.124" y2="0.717" xlink:href="#linear-gradient"/>
  </defs>
  <g id="Group_27" data-name="Group 27" transform="translate(-1094.6 -3884.949)">
    <g id="Illustration" transform="translate(1093.8 3883.986)">
      <path id="Path" d="M134.439,387.883q-18.491-10.775-26.791-.582c-5.533,6.7-8.251,18.055-8.251,34.071v86.293c0,16.4-1.553,29.994-4.562,40.768-3.009,11.163-8.154,19.122-15.24,23.782C72.7,576.97,63.385,578.232,51.543,576q-17.327-3.2-43.292-18.152L0,553.092V485.144l10.289,5.921c12.328,7.183,20.578,8.057,24.752,2.815,4.368-5.048,6.6-15.628,6.6-31.644v-76c0-19.8,1.941-35.43,5.824-46.981s11.551-18.831,23.1-22.131q-17.327-24.9-23.1-48.728c-3.883-15.919-5.727-33.78-5.727-53.581v-76c0-16.016-2.233-29.023-6.6-39.215-4.077-10-12.328-18.54-24.752-25.723L.1,67.947V0L8.348,4.756q25.917,15,43.292,31.838A148.093,148.093,0,0,1,79.693,72.8a144.052,144.052,0,0,1,15.24,41.351,223.416,223.416,0,0,1,4.562,46.01v86.293c0,16.016,2.718,30.576,8.251,43.583a61.743,61.743,0,0,0,26.791,30.285Z" transform="translate(574.664 52.348)" opacity="0.07" fill="url(#linear-gradient)"/>
      <path id="Path-2" data-name="Path" d="M.1,189.318q18.491,10.775,26.791.582c5.533-6.7,8.251-18.055,8.251-34.071V69.537c0-16.4,1.553-29.994,4.562-40.768C42.71,17.605,47.66,9.549,54.552,4.792,61.735.133,71.054-1.129,82.6,1.007q17.763,3.349,43.68,18.346l8.251,4.756V92.056l-10.289-5.921c-12.328-7.183-20.772-8.154-25.141-3.106-4.077,5.242-6.212,15.822-6.212,31.838v76c0,19.8-1.941,35.43-5.824,46.981-3.883,11.454-11.551,18.831-23.1,22.131q17.327,24.9,23.1,48.728c3.883,15.919,5.727,33.78,5.727,53.581v76c0,16.016,2.038,29.023,6.212,39.021,4.368,10.192,12.813,18.831,25.141,25.917l10.289,5.921V577.1l-8.251-4.756q-25.917-15-43.68-32.032a157.422,157.422,0,0,1-28.053-36.206A147.7,147.7,0,0,1,39.6,462.952a223.416,223.416,0,0,1-4.562-46.01V330.649c0-16.016-2.718-30.576-8.251-43.583A61.743,61.743,0,0,0,0,256.78Z" transform="translate(395.963 0.963)" opacity="0.07" fill="url(#linear-gradient-2)"/>
      <path id="Path-3" data-name="Path" d="M134.439,387.883q-18.491-10.775-26.791-.582c-5.533,6.7-8.251,18.055-8.251,34.071v86.293c0,16.4-1.553,29.994-4.562,40.768-3.009,11.163-8.154,19.122-15.24,23.782C72.7,576.97,63.385,578.232,51.543,576q-17.327-3.2-43.292-18.152L0,553.092V485.144l10.289,5.921c12.328,7.183,20.578,8.057,24.752,2.815,4.368-5.048,6.6-15.628,6.6-31.644v-76c0-19.8,1.941-35.43,5.824-46.981s11.551-18.831,23.1-22.131q-17.327-24.9-23.1-48.728c-3.883-15.919-5.727-33.78-5.727-53.581v-76c0-16.016-2.233-29.023-6.6-39.215-4.077-10-12.328-18.54-24.752-25.723L.1,67.947V0L8.348,4.756q25.917,15,43.292,31.838A148.093,148.093,0,0,1,79.693,72.8a144.052,144.052,0,0,1,15.24,41.351,223.416,223.416,0,0,1,4.562,46.01v86.293c0,16.016,2.718,30.576,8.251,43.583a61.743,61.743,0,0,0,26.791,30.285Z" transform="translate(535.837 81.468)" opacity="0.4" fill="url(#linear-gradient)"/>
      <path id="Path-4" data-name="Path" d="M.1,189.318q18.491,10.775,26.791.582c5.533-6.7,8.251-18.055,8.251-34.071V69.537c0-16.4,1.553-29.994,4.562-40.768C42.71,17.605,47.66,9.549,54.552,4.792,61.735.133,71.054-1.129,82.6,1.007q17.763,3.349,43.68,18.346l8.251,4.756V92.056l-10.289-5.921c-12.328-7.183-20.772-8.154-25.141-3.106-4.077,5.242-6.212,15.822-6.212,31.838v76c0,19.8-1.941,35.43-5.824,46.981-3.883,11.454-11.551,18.831-23.1,22.131q17.327,24.9,23.1,48.728c3.883,15.919,5.727,33.78,5.727,53.581v76c0,16.016,2.038,29.023,6.212,39.021,4.368,10.192,12.813,18.831,25.141,25.917l10.289,5.921V577.1l-8.251-4.756q-25.917-15-43.68-32.032a157.422,157.422,0,0,1-28.053-36.206A147.7,147.7,0,0,1,39.6,462.952a223.416,223.416,0,0,1-4.562-46.01V330.649c0-16.016-2.718-30.576-8.251-43.583A61.743,61.743,0,0,0,0,256.78Z" transform="translate(357.135 30.083)" opacity="0.4" fill="url(#linear-gradient-2)"/>
      <path id="Path-5" data-name="Path" d="M.1,0,165.986,95.806l-.1,397.3L0,397.3Z" transform="translate(141.645 12.841)" opacity="0.15" fill="url(#linear-gradient-5)"/>
      <path id="Path-6" data-name="Path" d="M0,0,131.915,76.2v36.595L0,36.595Z" transform="translate(110.584 73.897)" fill="#2e95ff"/>
      <path id="Path-7" data-name="Path" d="M0,0,126.77,73.189v56.882L0,56.882Z" transform="translate(162.224 232.7)" fill="#fff" opacity="0.15"/>
      <path id="Path-8" data-name="Path" d="M0,0,126.965,73.286v13.2L0,13.3Z" transform="translate(162.127 163.879)" fill="#fff" opacity="0.15"/>
      <path id="Path-9" data-name="Path" d="M0,0,109.784,63.385v13.2L0,13.2Z" transform="translate(162.127 189.699)" fill="#fff" opacity="0.15"/>
      <path id="Path-10" data-name="Path" d="M0,0,165.889,95.806V149.1L0,53.29Z" transform="translate(141.742 12.841)" opacity="0.2" fill="url(#linear-gradient-6)"/>
      <path id="Path-11" data-name="Path" d="M21.064,21.867c0,8.057-4.756,11.842-10.58,8.542C4.659,27.011,0,17.79,0,9.733S4.756-2.109,10.58,1.191C16.307,4.588,21.064,13.81,21.064,21.867Z" transform="translate(162.127 41.838)" fill="#fff" opacity="0.2"/>
      <path id="Path-12" data-name="Path" d="M.1,0,165.986,95.806l-.1,397.3L0,397.3Z" transform="translate(345.487 381.213)" opacity="0.15" fill="url(#linear-gradient-5)"/>
      <path id="Path-13" data-name="Path" d="M.1,0,132.012,76.1v36.5L0,36.5Z" transform="translate(408.678 496.821)" fill="#0a4078"/>
      <path id="Path-14" data-name="Path" d="M0,0,126.867,73.286v56.785L0,56.785Z" transform="translate(366.066 534.58)" fill="#fff" opacity="0.15"/>
      <path id="Path-15" data-name="Path" d="M0,0,126.965,73.286v13.2L0,13.3Z" transform="translate(365.872 615.729)" fill="#fff" opacity="0.15"/>
      <path id="Path-16" data-name="Path" d="M0,0,109.784,63.385v13.2L0,13.2Z" transform="translate(365.872 639.607)" fill="#fff" opacity="0.15"/>
      <path id="Path-17" data-name="Path" d="M0,0,165.889,95.806V149.1L0,53.29Z" transform="translate(345.585 381.213)" opacity="0.2" fill="url(#linear-gradient-8)"/>
      <path id="Path-18" data-name="Path" d="M21.064,21.867c0,8.057-4.756,11.842-10.58,8.542C4.659,27.011,0,17.79,0,9.733S4.756-2.109,10.58,1.191C16.307,4.491,21.064,13.81,21.064,21.867Z" transform="translate(365.969 410.307)" fill="#fff" opacity="0.2"/>
      <path id="Path-19" data-name="Path" d="M288.776,166.665,0,0,.1,150.552,263.442,302.56l25.529,37.759Z" transform="translate(28.076 269.585)" opacity="0.3" fill="url(#linear-gradient-9)"/>
      <path id="Path-20" data-name="Path" d="M63.288,36.5,0,0V13.2L63.288,49.7V36.5Z" transform="translate(179.308 393.541)" fill="#fff" opacity="0.15"/>
      <path id="Path-21" data-name="Path" d="M156.667,90.467,0,0V13.2l156.764,90.467Z" transform="translate(85.928 366.071)" fill="#fff" opacity="0.15"/>
      <path id="Path-22" data-name="Path" d="M189.185,109.2,0,0V13.2L189.185,122.4Z" transform="translate(53.508 373.836)" fill="#fff" opacity="0.15"/>
      <path id="Path-23" data-name="Path" d="M0,14.933C0,27.358,7.377,41.627,16.4,46.869s16.4-.582,16.4-13.007S25.432,7.168,16.4,1.926C7.28-3.315,0,2.509,0,14.933Z" transform="translate(258.224 437.916)" fill="#0a4078"/>
      <path id="Path-24" data-name="Path" d="M38.245,35.041,0,12.91V0L38.245,22.131A38.4,38.4,0,0,1,49.8,33.2a38.639,38.639,0,0,1,7.183,21.84c0,9.124-2.33,14.269-6.7,15.822-4.174,1.359-9.027-.971-12.036-2.718L22.52,59.017l-.1-.1c-1.359-.777-3.494-1.553-5.145-1.068-1.359.388-3.009,1.844-3.009,6.892a16.252,16.252,0,0,0,2.912,10A15.508,15.508,0,0,0,22.326,79.4l.194.1L70.665,107.26v12.91L22.811,92.506A36.838,36.838,0,0,1,10.677,81.44a40.152,40.152,0,0,1-7.571-23.2c0-8.833,3.106-13.4,7.474-14.657,4.077-1.165,8.833.582,12.133,2.524l15.628,9.027c2.233,1.262,3.98,1.844,5.048,1.456.874-.291,2.427-1.553,2.427-8.057A14.75,14.75,0,0,0,43.1,39.6,17.018,17.018,0,0,0,38.245,35.041Z" transform="translate(18.369 128.837)" fill="#fff" opacity="0.15"/>
      <path id="Path-25" data-name="Path" d="M28.926,30c0,11.066-6.5,16.21-14.463,11.648S0,24.375,0,13.309,6.5-2.9,14.463,1.661C22.423,6.32,28.926,19.036,28.926,30Z" transform="translate(0.8 113.101)" fill="#2e95ff"/>
      <path id="Path-26" data-name="Path" d="M28.926,30c0,11.066-6.5,16.21-14.463,11.648S0,24.375,0,13.309,6.5-2.9,14.463,1.661C22.423,6.32,28.926,19.036,28.926,30Z" transform="translate(77.483 219.876)" fill="#2e95ff"/>
      <path id="Path-27" data-name="Path" d="M40.574,1.463C46.4,4.86,51.058,12.917,51.058,19.711V49.317l19.608,11.26c5.824,3.4,10.483,11.454,10.483,18.249,0,6.7-4.756,9.416-10.483,6.115L51.058,73.681v29.606c0,6.7-4.756,9.416-10.483,6.115C34.75,106,30.091,97.948,30.091,91.153V61.548L10.483,50.288C4.659,46.89,0,38.834,0,32.039c0-6.7,4.756-9.416,10.483-6.115l19.608,11.26V7.578C30.091.783,34.75-1.935,40.574,1.463Z" transform="translate(169.018 585.922)" opacity="0.2" fill="url(#linear-gradient-10)"/>
    </g>
    <g id="Group_25" data-name="Group 25" transform="translate(0 -171.811)">
      <circle id="Ellipse_10" data-name="Ellipse 10" cx="100" cy="100" r="100" transform="translate(1349 4332)" fill="#fff"/>
      <text id="Solustack" transform="translate(1362 4445)" fill="#2e95ff" font-size="35" font-family="Poppins-SemiBold, Poppins" font-weight="600"><tspan x="0" y="0">Solustack</tspan></text>
    </g>
  </g>
</svg>
