<svg xmlns="http://www.w3.org/2000/svg" xmlns:xlink="http://www.w3.org/1999/xlink" width="81" height="81" viewBox="0 0 81 81">
  <defs>
    <linearGradient id="linear-gradient" x2="1" y2="1" gradientUnits="objectBoundingBox">
      <stop offset="0" stop-color="#32fbfc"/>
      <stop offset="1" stop-color="#3214f2"/>
    </linearGradient>
    <filter id="Rectangle_9" x="0" y="0" width="81" height="81" filterUnits="userSpaceOnUse">
      <feOffset dy="2" input="SourceAlpha"/>
      <feGaussianBlur stdDeviation="2" result="blur"/>
      <feFlood flood-color="#0826a8" flood-opacity="0.149"/>
      <feComposite operator="in" in2="blur"/>
      <feComposite in="SourceGraphic"/>
    </filter>
  </defs>
  <g id="Group_8" data-name="Group 8" transform="translate(6.155 4.333)">
    <g transform="matrix(1, 0, 0, 1, -6.15, -4.33)" filter="url(#Rectangle_9)">
      <rect id="Rectangle_9-2" data-name="Rectangle 9" width="69" height="69" rx="14" transform="translate(6 4)" fill="url(#linear-gradient)"/>
    </g>
    <path id="app-menu" d="M24,24h6v6H24Zm-9,0h6v6H15ZM6,24h6v6H6Zm18-9h6v6H24Zm-9,0h6v6H15ZM6,15h6v6H6ZM24,6h6v6H24ZM15,6h6v6H15ZM6,6h6v6H6Z" transform="translate(16.845 16.667)" fill="#fff" fill-rule="evenodd"/>
  </g>
</svg>
