<svg xmlns="http://www.w3.org/2000/svg" width="45.689" height="53.996" viewBox="0 0 45.689 53.996">
  <path id="android" d="M16,11.519a1.265,1.265,0,0,0,0-2.53,1.172,1.172,0,0,0-.876.373,1.294,1.294,0,0,0,0,1.785,1.172,1.172,0,0,0,.876.373Zm13.694,0a1.165,1.165,0,0,0,.876-.373,1.294,1.294,0,0,0,0-1.785,1.165,1.165,0,0,0-.876-.373,1.266,1.266,0,0,0,0,2.532ZM3.342,17.49a3.187,3.187,0,0,1,2.337.973A3.187,3.187,0,0,1,6.652,20.8V34.754A3.252,3.252,0,0,1,5.7,37.122a3.171,3.171,0,0,1-2.353.973,3.22,3.22,0,0,1-2.368-.973A3.231,3.231,0,0,1,0,34.754V20.8a3.187,3.187,0,0,1,.973-2.337A3.224,3.224,0,0,1,3.342,17.49Zm34.4.616V39.718A3.448,3.448,0,0,1,36.7,42.25a3.4,3.4,0,0,1-2.5,1.038H31.767v7.366a3.342,3.342,0,1,1-6.683,0V43.288H20.605v7.366A3.324,3.324,0,0,1,17.264,54a3.187,3.187,0,0,1-2.337-.973,3.224,3.224,0,0,1-.973-2.368l-.033-7.366h-2.4a3.544,3.544,0,0,1-3.57-3.57V18.107ZM30.21,4.965a14.275,14.275,0,0,1,5.55,4.981,12.575,12.575,0,0,1,2.077,6.992H7.82A12.575,12.575,0,0,1,9.9,9.946a14.22,14.22,0,0,1,5.581-4.981L13.175.714a.428.428,0,0,1,.162-.649.45.45,0,0,1,.649.195l2.337,4.284a16.286,16.286,0,0,1,13.046,0L31.7.26a.45.45,0,0,1,.649-.195.427.427,0,0,1,.162.649ZM45.689,20.8V34.754A3.324,3.324,0,0,1,42.347,38.1a3.187,3.187,0,0,1-2.337-.973,3.224,3.224,0,0,1-.973-2.368V20.8a3.174,3.174,0,0,1,.973-2.353,3.207,3.207,0,0,1,2.337-.957,3.252,3.252,0,0,1,2.368.957A3.171,3.171,0,0,1,45.689,20.8Z" transform="translate(0 0)" fill="#fff"/>
</svg>
