<svg xmlns="http://www.w3.org/2000/svg" width="30.932" height="36.556" viewBox="0 0 30.932 36.556">
  <path id="android" d="M10.831,7.8a.857.857,0,0,0,0-1.713.793.793,0,0,0-.593.253.876.876,0,0,0,0,1.208.793.793,0,0,0,.593.253Zm9.271,0a.788.788,0,0,0,.593-.253.876.876,0,0,0,0-1.208.788.788,0,0,0-.593-.253.857.857,0,0,0,0,1.714ZM2.262,11.841a2.158,2.158,0,0,1,1.582.659A2.158,2.158,0,0,1,4.5,14.082v9.447a2.2,2.2,0,0,1-.648,1.6,2.147,2.147,0,0,1-1.593.659,2.18,2.18,0,0,1-1.6-.659A2.188,2.188,0,0,1,0,23.529V14.082A2.158,2.158,0,0,1,.659,12.5,2.182,2.182,0,0,1,2.262,11.841Zm23.287.417V26.89a2.334,2.334,0,0,1-.7,1.714,2.3,2.3,0,0,1-1.692.7H21.507v4.987a2.262,2.262,0,1,1-4.525,0V29.306H13.95v4.987a2.25,2.25,0,0,1-2.262,2.262,2.158,2.158,0,0,1-1.582-.659,2.182,2.182,0,0,1-.659-1.6l-.022-4.987H7.8A2.4,2.4,0,0,1,5.382,26.89V12.258Zm-5.1-8.9A9.664,9.664,0,0,1,24.21,6.733a8.513,8.513,0,0,1,1.406,4.734H5.294A8.513,8.513,0,0,1,6.7,6.733a9.627,9.627,0,0,1,3.778-3.372L8.92.483a.29.29,0,0,1,.11-.44.3.3,0,0,1,.44.132l1.582,2.9a11.026,11.026,0,0,1,8.832,0l1.58-2.9A.3.3,0,0,1,21.9.044a.289.289,0,0,1,.11.44ZM30.932,14.082v9.447a2.25,2.25,0,0,1-2.262,2.262,2.158,2.158,0,0,1-1.582-.659,2.182,2.182,0,0,1-.659-1.6V14.082a2.149,2.149,0,0,1,.659-1.593,2.171,2.171,0,0,1,1.582-.648,2.2,2.2,0,0,1,1.6.648A2.147,2.147,0,0,1,30.932,14.082Z" transform="translate(0 0)" fill="#20c869"/>
</svg>
