<svg xmlns="http://www.w3.org/2000/svg" width="45.981" height="54.926" viewBox="0 0 45.981 54.926">
  <path id="apple" d="M45.98,40.1a31.893,31.893,0,0,1-4.06,8.252q-4.258,6.469-8.483,6.469a15.255,15.255,0,0,1-4.621-1.056,14.6,14.6,0,0,0-4.984-1.056A12.7,12.7,0,0,0,19.144,53.8a11.924,11.924,0,0,1-4.357,1.123q-5.016,0-9.935-8.548Q0,37.761,0,29.772q0-7.526,3.73-12.344A11.454,11.454,0,0,1,13.1,12.675a21.956,21.956,0,0,1,5.842.99,21.257,21.257,0,0,0,4.556.99,16.51,16.51,0,0,0,4.72-1.123,18.638,18.638,0,0,1,5.711-1.123,12.066,12.066,0,0,1,7.03,2.145,17.045,17.045,0,0,1,3.433,3.3,21.394,21.394,0,0,0-3.762,3.9,11.756,11.756,0,0,0-2.145,6.832,12.57,12.57,0,0,0,2.278,7.361A10.038,10.038,0,0,0,45.981,40.1ZM33.568,1.387a12.587,12.587,0,0,1-.957,4.489,13.544,13.544,0,0,1-3.07,4.556,9.359,9.359,0,0,1-3.566,2.377,18.439,18.439,0,0,1-3.433.561,15.045,15.045,0,0,1,2.575-8.483Q27.562,1.353,33.371,0a3.06,3.06,0,0,1,.082.363,3.06,3.06,0,0,0,.082.363q0,.133.017.33t.017.33Z" fill="#fff"/>
</svg>
