<svg xmlns="http://www.w3.org/2000/svg" width="30.602" height="36.556" viewBox="0 0 30.602 36.556">
  <path id="apple" d="M30.6,26.691a21.226,21.226,0,0,1-2.7,5.492q-2.834,4.305-5.646,4.305a10.153,10.153,0,0,1-3.076-.7,9.717,9.717,0,0,0-3.317-.7,8.455,8.455,0,0,0-3.119.725,7.936,7.936,0,0,1-2.9.747q-3.339,0-6.612-5.689A22.531,22.531,0,0,1,0,19.815,13.03,13.03,0,0,1,2.483,11.6,7.623,7.623,0,0,1,8.721,8.436a14.612,14.612,0,0,1,3.888.659,14.147,14.147,0,0,0,3.032.659,10.988,10.988,0,0,0,3.142-.747,12.4,12.4,0,0,1,3.8-.747,8.03,8.03,0,0,1,4.679,1.428,11.344,11.344,0,0,1,2.285,2.2,14.239,14.239,0,0,0-2.5,2.592,7.824,7.824,0,0,0-1.428,4.547,8.366,8.366,0,0,0,1.516,4.9A6.681,6.681,0,0,0,30.6,26.69ZM22.341.923A8.377,8.377,0,0,1,21.7,3.91a9.014,9.014,0,0,1-2.043,3.032,6.229,6.229,0,0,1-2.373,1.582A12.272,12.272,0,0,1,15,8.9a10.013,10.013,0,0,1,1.714-5.646A8.752,8.752,0,0,1,22.21,0a2.037,2.037,0,0,1,.055.242,2.037,2.037,0,0,0,.055.242q0,.088.011.219t.011.219Z" fill="#fff"/>
</svg>
