<svg id="Group_410" data-name="Group 410" xmlns="http://www.w3.org/2000/svg" width="34.189" height="34.189" viewBox="0 0 34.189 34.189">
  <path id="Path_1023" data-name="Path 1023" d="M0,0H34.189V34.189H0Z" fill="none"/>
  <path id="Path_1024" data-name="Path 1024" d="M5.849,4h5.7L14.4,11.123,10.835,13.26a15.67,15.67,0,0,0,7.123,7.123l2.137-3.561,7.123,2.849v5.7a2.849,2.849,0,0,1-2.849,2.849A22.793,22.793,0,0,1,3,6.849,2.849,2.849,0,0,1,5.849,4" transform="translate(1.274 1.698)" fill="none" stroke="#0068d2" stroke-linecap="round" stroke-linejoin="round" stroke-width="1.5"/>
  <path id="Path_1025" data-name="Path 1025" d="M15,7a2.849,2.849,0,0,1,2.849,2.849" transform="translate(6.368 2.972)" fill="none" stroke="#0068d2" stroke-linecap="round" stroke-linejoin="round" stroke-width="1.5"/>
  <path id="Path_1026" data-name="Path 1026" d="M15,3a8.547,8.547,0,0,1,8.547,8.547" transform="translate(6.368 1.274)" fill="none" stroke="#0068d2" stroke-linecap="round" stroke-linejoin="round" stroke-width="1.5"/>
</svg>
