<svg xmlns="http://www.w3.org/2000/svg" width="75.461" height="75.159" viewBox="0 0 75.461 75.159">
  <g id="noun-collaborate-182460" transform="translate(-70)">
    <path id="Path_21" data-name="Path 21" d="M277.319,27.241a14.392,14.392,0,0,0,11.319-5.433,12.206,12.206,0,0,0-7.546-7.018,7.935,7.935,0,0,0,4.075-6.942,7.848,7.848,0,1,0-15.7,0,8.028,8.028,0,0,0,4.075,6.942A12.4,12.4,0,0,0,266,21.808,14.39,14.39,0,0,0,277.319,27.241Z" transform="translate(-169.589)" fill="#2e95ff"/>
    <path id="Path_22" data-name="Path 22" d="M473.319,382.845a14.392,14.392,0,0,0,11.319-5.433,12.206,12.206,0,0,0-7.546-7.018,7.935,7.935,0,0,0,4.075-6.942,7.848,7.848,0,0,0-15.7,0,8.028,8.028,0,0,0,4.075,6.942A12.4,12.4,0,0,0,462,377.412,14.393,14.393,0,0,0,473.319,382.845Z" transform="translate(-339.178 -307.686)" fill="#2e95ff"/>
    <path id="Path_23" data-name="Path 23" d="M81.319,382.845a14.392,14.392,0,0,0,11.319-5.433,12.206,12.206,0,0,0-7.546-7.018,7.935,7.935,0,0,0,4.075-6.942,7.848,7.848,0,1,0-15.7.075,8.028,8.028,0,0,0,4.075,6.942A11.9,11.9,0,0,0,70,377.412,14.393,14.393,0,0,0,81.319,382.845Z" transform="translate(0 -307.686)" fill="#2e95ff"/>
    <path id="Path_24" data-name="Path 24" d="M420.35,214.93l8.539,15.11L425.6,231.9l-8.539-15.11Z" transform="translate(-300.298 -185.968)" fill="#2e95ff"/>
    <path id="Path_25" data-name="Path 25" d="M203.845,214.77l3.284,1.858-8.545,15.107-3.284-1.858Z" transform="translate(-108.416 -185.83)" fill="#2e95ff"/>
    <path id="Path_26" data-name="Path 26" d="M238,389.76h30.184v3.773H238Z" transform="translate(-145.362 -337.239)" fill="#2e95ff"/>
  </g>
</svg>
