<svg xmlns="http://www.w3.org/2000/svg" width="49.649" height="49.649" viewBox="0 0 49.649 49.649">
  <path id="design" d="M33.566,23.611l3.152,3.152L32.79,30.69a.545.545,0,0,0,0,.872l.824.824a.545.545,0,0,0,.872,0l3.927-3.927,6.06,6.06-3.927,3.927a.5.5,0,0,0,0,.824l.824.872a.545.545,0,0,0,.872,0l3.927-3.927,3.055,3.055a1.451,1.451,0,0,1,.436,1.067,1.618,1.618,0,0,1-.436,1.115l-7.758,7.758a1.618,1.618,0,0,1-1.115.436,1.451,1.451,0,0,1-1.067-.436l-15.66-15.66L14.51,42.667a2.693,2.693,0,0,1-3.782,0L7.044,38.934a2.633,2.633,0,0,1,0-3.733l9.115-9.115L.449,10.377a1.523,1.523,0,0,1,0-2.134L8.207.437A1.618,1.618,0,0,1,9.323,0,1.451,1.451,0,0,1,10.39.437l3.055,3.055L9.517,7.419a.545.545,0,0,0,0,.872l.824.824a.545.545,0,0,0,.872,0l3.927-3.927,6.06,6.06-3.927,3.927a.545.545,0,0,0,0,.872l.824.824a.545.545,0,0,0,.872,0L22.9,12.945l3.152,3.2L41.419.775a2.633,2.633,0,0,1,3.733,0l3.733,3.733a2.544,2.544,0,0,1,.776,1.866,2.544,2.544,0,0,1-.776,1.866ZM3.216,39.174a1.322,1.322,0,0,0,.34.631l6.3,6.3a1.322,1.322,0,0,0,.631.34,1.711,1.711,0,0,1-.388.581L1.569,49.648a2.582,2.582,0,0,1-1.357-.193A2.582,2.582,0,0,1,.019,48.1l2.619-8.532a4.14,4.14,0,0,1,.581-.388Z" transform="translate(-0.013 0.001)" fill="#fff"/>
</svg>
