<svg xmlns="http://www.w3.org/2000/svg" xmlns:xlink="http://www.w3.org/1999/xlink" width="136.567" height="204.177" viewBox="0 0 136.567 204.177">
  <defs>
    <clipPath id="clip-path">
      <rect width="136.567" height="204.177" fill="none"/>
    </clipPath>
  </defs>
  <g id="Repeat_Grid_2" data-name="Repeat Grid 2" clip-path="url(#clip-path)">
    <g id="Group_10269" data-name="Group 10269" transform="translate(-32.039 -27.654)">
      <path id="Path_201" data-name="Path 201" d="M38.429,30.85a3.2,3.2,0,1,1-3.2-3.2A3.195,3.195,0,0,1,38.429,30.85Z" transform="translate(0 0)" fill="rgba(255,255,255,0.15)"/>
      <circle id="Ellipse_4" data-name="Ellipse 4" cx="3.196" cy="3.196" r="3.196" transform="translate(53.734 27.655)" fill="rgba(255,255,255,0.15)"/>
      <path id="Path_202" data-name="Path 202" d="M65.68,30.85a3.2,3.2,0,1,1-3.2-3.2A3.2,3.2,0,0,1,65.68,30.85Z" transform="translate(16.142 0)" fill="rgba(255,255,255,0.15)"/>
      <path id="Path_203" data-name="Path 203" d="M79.3,30.85a3.2,3.2,0,1,1-3.2-3.2A3.2,3.2,0,0,1,79.3,30.85Z" transform="translate(24.214 0)" fill="rgba(255,255,255,0.15)"/>
      <circle id="Ellipse_5" data-name="Ellipse 5" cx="3.196" cy="3.196" r="3.196" transform="translate(118.823 27.655)" fill="rgba(255,255,255,0.15)"/>
      <path id="Path_204" data-name="Path 204" d="M106.553,30.85a3.2,3.2,0,1,1-3.2-3.2A3.195,3.195,0,0,1,106.553,30.85Z" transform="translate(40.357 0)" fill="rgba(255,255,255,0.15)"/>
      <path id="Path_205" data-name="Path 205" d="M120.178,30.85a3.2,3.2,0,1,1-3.2-3.2A3.195,3.195,0,0,1,120.178,30.85Z" transform="translate(48.428 0)" fill="rgba(255,255,255,0.15)"/>
      <path id="Path_206" data-name="Path 206" d="M38.429,44.475a3.2,3.2,0,1,1-3.2-3.2A3.2,3.2,0,0,1,38.429,44.475Z" transform="translate(0 8.071)" fill="rgba(255,255,255,0.15)"/>
      <path id="Path_207" data-name="Path 207" d="M52.055,44.475a3.2,3.2,0,1,1-3.2-3.2A3.2,3.2,0,0,1,52.055,44.475Z" transform="translate(8.071 8.071)" fill="rgba(255,255,255,0.15)"/>
      <path id="Path_208" data-name="Path 208" d="M65.68,44.475a3.2,3.2,0,1,1-3.2-3.2A3.2,3.2,0,0,1,65.68,44.475Z" transform="translate(16.142 8.071)" fill="rgba(255,255,255,0.15)"/>
      <path id="Path_209" data-name="Path 209" d="M79.3,44.475a3.2,3.2,0,1,1-3.2-3.2A3.2,3.2,0,0,1,79.3,44.475Z" transform="translate(24.214 8.071)" fill="rgba(255,255,255,0.15)"/>
      <path id="Path_210" data-name="Path 210" d="M92.928,44.475a3.2,3.2,0,1,1-3.194-3.2A3.2,3.2,0,0,1,92.928,44.475Z" transform="translate(32.285 8.071)" fill="rgba(255,255,255,0.15)"/>
      <path id="Path_211" data-name="Path 211" d="M106.553,44.475a3.2,3.2,0,1,1-3.2-3.2A3.2,3.2,0,0,1,106.553,44.475Z" transform="translate(40.357 8.071)" fill="rgba(255,255,255,0.15)"/>
      <path id="Path_212" data-name="Path 212" d="M120.178,44.475a3.2,3.2,0,1,1-3.2-3.2A3.2,3.2,0,0,1,120.178,44.475Z" transform="translate(48.428 8.071)" fill="rgba(255,255,255,0.15)"/>
      <path id="Path_213" data-name="Path 213" d="M38.429,58.1a3.2,3.2,0,1,1-3.2-3.2A3.2,3.2,0,0,1,38.429,58.1Z" transform="translate(0 16.143)" fill="rgba(255,255,255,0.15)"/>
      <path id="Path_214" data-name="Path 214" d="M52.055,58.1a3.2,3.2,0,1,1-3.2-3.2A3.2,3.2,0,0,1,52.055,58.1Z" transform="translate(8.071 16.143)" fill="rgba(255,255,255,0.15)"/>
      <path id="Path_215" data-name="Path 215" d="M65.68,58.1a3.2,3.2,0,1,1-3.2-3.2A3.2,3.2,0,0,1,65.68,58.1Z" transform="translate(16.142 16.143)" fill="rgba(255,255,255,0.15)"/>
      <path id="Path_216" data-name="Path 216" d="M79.3,58.1a3.2,3.2,0,1,1-3.2-3.2A3.2,3.2,0,0,1,79.3,58.1Z" transform="translate(24.214 16.143)" fill="rgba(255,255,255,0.15)"/>
      <path id="Path_217" data-name="Path 217" d="M92.928,58.1a3.2,3.2,0,1,1-3.194-3.2A3.2,3.2,0,0,1,92.928,58.1Z" transform="translate(32.285 16.143)" fill="rgba(255,255,255,0.15)"/>
      <path id="Path_218" data-name="Path 218" d="M106.553,58.1a3.2,3.2,0,1,1-3.2-3.2A3.2,3.2,0,0,1,106.553,58.1Z" transform="translate(40.357 16.143)" fill="rgba(255,255,255,0.15)"/>
      <path id="Path_219" data-name="Path 219" d="M120.178,58.1a3.2,3.2,0,1,1-3.2-3.2A3.2,3.2,0,0,1,120.178,58.1Z" transform="translate(48.428 16.143)" fill="rgba(255,255,255,0.15)"/>
      <path id="Path_220" data-name="Path 220" d="M38.429,71.725a3.2,3.2,0,1,1-3.2-3.2A3.194,3.194,0,0,1,38.429,71.725Z" transform="translate(0 24.214)" fill="rgba(255,255,255,0.15)"/>
      <path id="Path_221" data-name="Path 221" d="M52.055,71.725a3.2,3.2,0,1,1-3.2-3.2A3.2,3.2,0,0,1,52.055,71.725Z" transform="translate(8.071 24.214)" fill="rgba(255,255,255,0.15)"/>
      <path id="Path_222" data-name="Path 222" d="M65.68,71.725a3.2,3.2,0,1,1-3.2-3.2A3.2,3.2,0,0,1,65.68,71.725Z" transform="translate(16.142 24.214)" fill="rgba(255,255,255,0.15)"/>
      <path id="Path_223" data-name="Path 223" d="M79.3,71.725a3.2,3.2,0,1,1-3.2-3.2A3.2,3.2,0,0,1,79.3,71.725Z" transform="translate(24.214 24.214)" fill="rgba(255,255,255,0.15)"/>
      <path id="Path_224" data-name="Path 224" d="M92.928,71.725a3.2,3.2,0,1,1-3.194-3.2A3.194,3.194,0,0,1,92.928,71.725Z" transform="translate(32.285 24.214)" fill="rgba(255,255,255,0.15)"/>
      <path id="Path_225" data-name="Path 225" d="M106.553,71.725a3.2,3.2,0,1,1-3.2-3.2A3.194,3.194,0,0,1,106.553,71.725Z" transform="translate(40.357 24.214)" fill="rgba(255,255,255,0.15)"/>
      <path id="Path_226" data-name="Path 226" d="M120.178,71.725a3.2,3.2,0,1,1-3.2-3.2A3.194,3.194,0,0,1,120.178,71.725Z" transform="translate(48.428 24.214)" fill="rgba(255,255,255,0.15)"/>
      <path id="Path_227" data-name="Path 227" d="M38.429,85.348a3.2,3.2,0,1,1-3.2-3.194A3.195,3.195,0,0,1,38.429,85.348Z" transform="translate(0 32.286)" fill="rgba(255,255,255,0.15)"/>
      <circle id="Ellipse_6" data-name="Ellipse 6" cx="3.196" cy="3.196" r="3.196" transform="translate(53.734 114.439)" fill="rgba(255,255,255,0.15)"/>
      <path id="Path_228" data-name="Path 228" d="M65.68,85.348a3.2,3.2,0,1,1-3.2-3.194A3.2,3.2,0,0,1,65.68,85.348Z" transform="translate(16.142 32.286)" fill="rgba(255,255,255,0.15)"/>
      <path id="Path_229" data-name="Path 229" d="M79.3,85.348a3.2,3.2,0,1,1-3.2-3.194A3.2,3.2,0,0,1,79.3,85.348Z" transform="translate(24.214 32.286)" fill="rgba(255,255,255,0.15)"/>
      <circle id="Ellipse_7" data-name="Ellipse 7" cx="3.196" cy="3.196" r="3.196" transform="translate(118.823 114.439)" fill="rgba(255,255,255,0.15)"/>
      <path id="Path_230" data-name="Path 230" d="M106.553,85.348a3.2,3.2,0,1,1-3.2-3.194A3.195,3.195,0,0,1,106.553,85.348Z" transform="translate(40.357 32.286)" fill="rgba(255,255,255,0.15)"/>
      <path id="Path_231" data-name="Path 231" d="M120.178,85.348a3.2,3.2,0,1,1-3.2-3.194A3.195,3.195,0,0,1,120.178,85.348Z" transform="translate(48.428 32.286)" fill="rgba(255,255,255,0.15)"/>
    </g>
    <g id="Group_10269-2" data-name="Group 10269" transform="translate(-32.039 79.346)">
      <path id="Path_201-2" data-name="Path 201" d="M38.429,30.85a3.2,3.2,0,1,1-3.2-3.2A3.195,3.195,0,0,1,38.429,30.85Z" transform="translate(0 0)" fill="rgba(255,255,255,0.15)"/>
      <circle id="Ellipse_4-2" data-name="Ellipse 4" cx="3.196" cy="3.196" r="3.196" transform="translate(53.734 27.655)" fill="rgba(255,255,255,0.15)"/>
      <path id="Path_202-2" data-name="Path 202" d="M65.68,30.85a3.2,3.2,0,1,1-3.2-3.2A3.2,3.2,0,0,1,65.68,30.85Z" transform="translate(16.142 0)" fill="rgba(255,255,255,0.15)"/>
      <path id="Path_203-2" data-name="Path 203" d="M79.3,30.85a3.2,3.2,0,1,1-3.2-3.2A3.2,3.2,0,0,1,79.3,30.85Z" transform="translate(24.214 0)" fill="rgba(255,255,255,0.15)"/>
      <circle id="Ellipse_5-2" data-name="Ellipse 5" cx="3.196" cy="3.196" r="3.196" transform="translate(118.823 27.655)" fill="rgba(255,255,255,0.15)"/>
      <path id="Path_204-2" data-name="Path 204" d="M106.553,30.85a3.2,3.2,0,1,1-3.2-3.2A3.195,3.195,0,0,1,106.553,30.85Z" transform="translate(40.357 0)" fill="rgba(255,255,255,0.15)"/>
      <path id="Path_205-2" data-name="Path 205" d="M120.178,30.85a3.2,3.2,0,1,1-3.2-3.2A3.195,3.195,0,0,1,120.178,30.85Z" transform="translate(48.428 0)" fill="rgba(255,255,255,0.15)"/>
      <path id="Path_206-2" data-name="Path 206" d="M38.429,44.475a3.2,3.2,0,1,1-3.2-3.2A3.2,3.2,0,0,1,38.429,44.475Z" transform="translate(0 8.071)" fill="rgba(255,255,255,0.15)"/>
      <path id="Path_207-2" data-name="Path 207" d="M52.055,44.475a3.2,3.2,0,1,1-3.2-3.2A3.2,3.2,0,0,1,52.055,44.475Z" transform="translate(8.071 8.071)" fill="rgba(255,255,255,0.15)"/>
      <path id="Path_208-2" data-name="Path 208" d="M65.68,44.475a3.2,3.2,0,1,1-3.2-3.2A3.2,3.2,0,0,1,65.68,44.475Z" transform="translate(16.142 8.071)" fill="rgba(255,255,255,0.15)"/>
      <path id="Path_209-2" data-name="Path 209" d="M79.3,44.475a3.2,3.2,0,1,1-3.2-3.2A3.2,3.2,0,0,1,79.3,44.475Z" transform="translate(24.214 8.071)" fill="rgba(255,255,255,0.15)"/>
      <path id="Path_210-2" data-name="Path 210" d="M92.928,44.475a3.2,3.2,0,1,1-3.194-3.2A3.2,3.2,0,0,1,92.928,44.475Z" transform="translate(32.285 8.071)" fill="rgba(255,255,255,0.15)"/>
      <path id="Path_211-2" data-name="Path 211" d="M106.553,44.475a3.2,3.2,0,1,1-3.2-3.2A3.2,3.2,0,0,1,106.553,44.475Z" transform="translate(40.357 8.071)" fill="rgba(255,255,255,0.15)"/>
      <path id="Path_212-2" data-name="Path 212" d="M120.178,44.475a3.2,3.2,0,1,1-3.2-3.2A3.2,3.2,0,0,1,120.178,44.475Z" transform="translate(48.428 8.071)" fill="rgba(255,255,255,0.15)"/>
      <path id="Path_213-2" data-name="Path 213" d="M38.429,58.1a3.2,3.2,0,1,1-3.2-3.2A3.2,3.2,0,0,1,38.429,58.1Z" transform="translate(0 16.143)" fill="rgba(255,255,255,0.15)"/>
      <path id="Path_214-2" data-name="Path 214" d="M52.055,58.1a3.2,3.2,0,1,1-3.2-3.2A3.2,3.2,0,0,1,52.055,58.1Z" transform="translate(8.071 16.143)" fill="rgba(255,255,255,0.15)"/>
      <path id="Path_215-2" data-name="Path 215" d="M65.68,58.1a3.2,3.2,0,1,1-3.2-3.2A3.2,3.2,0,0,1,65.68,58.1Z" transform="translate(16.142 16.143)" fill="rgba(255,255,255,0.15)"/>
      <path id="Path_216-2" data-name="Path 216" d="M79.3,58.1a3.2,3.2,0,1,1-3.2-3.2A3.2,3.2,0,0,1,79.3,58.1Z" transform="translate(24.214 16.143)" fill="rgba(255,255,255,0.15)"/>
      <path id="Path_217-2" data-name="Path 217" d="M92.928,58.1a3.2,3.2,0,1,1-3.194-3.2A3.2,3.2,0,0,1,92.928,58.1Z" transform="translate(32.285 16.143)" fill="rgba(255,255,255,0.15)"/>
      <path id="Path_218-2" data-name="Path 218" d="M106.553,58.1a3.2,3.2,0,1,1-3.2-3.2A3.2,3.2,0,0,1,106.553,58.1Z" transform="translate(40.357 16.143)" fill="rgba(255,255,255,0.15)"/>
      <path id="Path_219-2" data-name="Path 219" d="M120.178,58.1a3.2,3.2,0,1,1-3.2-3.2A3.2,3.2,0,0,1,120.178,58.1Z" transform="translate(48.428 16.143)" fill="rgba(255,255,255,0.15)"/>
      <path id="Path_220-2" data-name="Path 220" d="M38.429,71.725a3.2,3.2,0,1,1-3.2-3.2A3.194,3.194,0,0,1,38.429,71.725Z" transform="translate(0 24.214)" fill="rgba(255,255,255,0.15)"/>
      <path id="Path_221-2" data-name="Path 221" d="M52.055,71.725a3.2,3.2,0,1,1-3.2-3.2A3.2,3.2,0,0,1,52.055,71.725Z" transform="translate(8.071 24.214)" fill="rgba(255,255,255,0.15)"/>
      <path id="Path_222-2" data-name="Path 222" d="M65.68,71.725a3.2,3.2,0,1,1-3.2-3.2A3.2,3.2,0,0,1,65.68,71.725Z" transform="translate(16.142 24.214)" fill="rgba(255,255,255,0.15)"/>
      <path id="Path_223-2" data-name="Path 223" d="M79.3,71.725a3.2,3.2,0,1,1-3.2-3.2A3.2,3.2,0,0,1,79.3,71.725Z" transform="translate(24.214 24.214)" fill="rgba(255,255,255,0.15)"/>
      <path id="Path_224-2" data-name="Path 224" d="M92.928,71.725a3.2,3.2,0,1,1-3.194-3.2A3.194,3.194,0,0,1,92.928,71.725Z" transform="translate(32.285 24.214)" fill="rgba(255,255,255,0.15)"/>
      <path id="Path_225-2" data-name="Path 225" d="M106.553,71.725a3.2,3.2,0,1,1-3.2-3.2A3.194,3.194,0,0,1,106.553,71.725Z" transform="translate(40.357 24.214)" fill="rgba(255,255,255,0.15)"/>
      <path id="Path_226-2" data-name="Path 226" d="M120.178,71.725a3.2,3.2,0,1,1-3.2-3.2A3.194,3.194,0,0,1,120.178,71.725Z" transform="translate(48.428 24.214)" fill="rgba(255,255,255,0.15)"/>
      <path id="Path_227-2" data-name="Path 227" d="M38.429,85.348a3.2,3.2,0,1,1-3.2-3.194A3.195,3.195,0,0,1,38.429,85.348Z" transform="translate(0 32.286)" fill="rgba(255,255,255,0.15)"/>
      <circle id="Ellipse_6-2" data-name="Ellipse 6" cx="3.196" cy="3.196" r="3.196" transform="translate(53.734 114.439)" fill="rgba(255,255,255,0.15)"/>
      <path id="Path_228-2" data-name="Path 228" d="M65.68,85.348a3.2,3.2,0,1,1-3.2-3.194A3.2,3.2,0,0,1,65.68,85.348Z" transform="translate(16.142 32.286)" fill="rgba(255,255,255,0.15)"/>
      <path id="Path_229-2" data-name="Path 229" d="M79.3,85.348a3.2,3.2,0,1,1-3.2-3.194A3.2,3.2,0,0,1,79.3,85.348Z" transform="translate(24.214 32.286)" fill="rgba(255,255,255,0.15)"/>
      <circle id="Ellipse_7-2" data-name="Ellipse 7" cx="3.196" cy="3.196" r="3.196" transform="translate(118.823 114.439)" fill="rgba(255,255,255,0.15)"/>
      <path id="Path_230-2" data-name="Path 230" d="M106.553,85.348a3.2,3.2,0,1,1-3.2-3.194A3.195,3.195,0,0,1,106.553,85.348Z" transform="translate(40.357 32.286)" fill="rgba(255,255,255,0.15)"/>
      <path id="Path_231-2" data-name="Path 231" d="M120.178,85.348a3.2,3.2,0,1,1-3.2-3.194A3.195,3.195,0,0,1,120.178,85.348Z" transform="translate(48.428 32.286)" fill="rgba(255,255,255,0.15)"/>
    </g>
  </g>
</svg>
