<svg id="Group_415" data-name="Group 415" xmlns="http://www.w3.org/2000/svg" width="34.189" height="34.189" viewBox="0 0 34.189 34.189">
  <path id="Path_1034" data-name="Path 1034" d="M0,0H34.189V34.189H0Z" fill="none"/>
  <path id="Path_1035" data-name="Path 1035" d="M11.547,25.793C5.442,27.716,5.442,22.16,3,21.519m17.095,7.123V23.656c0-1.425.141-2-.712-2.849,3.976-.427,7.835-1.946,7.835-8.6a6.506,6.506,0,0,0-1.9-4.573,5.972,5.972,0,0,0-.114-4.6s-1.5-.427-4.952,1.8a17.571,17.571,0,0,0-8.864,0c-3.457-2.232-4.952-1.8-4.952-1.8a5.972,5.972,0,0,0-.114,4.6,6.5,6.5,0,0,0-1.9,4.61c0,6.61,3.859,8.092,7.835,8.567-.842.839-.8,1.685-.712,2.849v4.986" transform="translate(1.274 1.274)" fill="none" stroke="#0068d2" stroke-linecap="round" stroke-linejoin="round" stroke-width="1.5"/>
</svg>
