<svg xmlns="http://www.w3.org/2000/svg" width="50.347" height="50.347" viewBox="0 0 50.347 50.347">
  <g id="Group_20" data-name="Group 20" transform="translate(-2411.506 -1344.688)">
    <path id="Union_1" data-name="Union 1" d="M6.168,49.347a6.168,6.168,0,1,1,0-12.337V12.337a6.168,6.168,0,1,1,6.168-6.168,6.169,6.169,0,0,1-6.168,6.168V37.01a6.168,6.168,0,0,1,0,12.337v0Z" transform="translate(2430.773 1345.188)" fill="#fff" stroke="#fff" stroke-width="1"/>
    <path id="Union_2" data-name="Union 2" d="M6.168,49.347a6.168,6.168,0,1,1,0-12.337V12.337a6.168,6.168,0,1,1,6.168-6.168,6.169,6.169,0,0,1-6.168,6.168V37.01a6.168,6.168,0,0,1,0,12.337v0Z" transform="translate(2461.353 1363.431) rotate(90)" fill="#fff" stroke="#fff" stroke-width="1"/>
    <circle id="Ellipse_6" data-name="Ellipse 6" cx="2.644" cy="2.644" r="2.644" transform="translate(2428.129 1361.931)" fill="#fff"/>
    <circle id="Ellipse_9" data-name="Ellipse 9" cx="2.644" cy="2.644" r="2.644" transform="translate(2440.466 1361.931)" fill="#fff"/>
    <circle id="Ellipse_7" data-name="Ellipse 7" cx="2.644" cy="2.644" r="2.644" transform="translate(2440.466 1372.505)" fill="#fff"/>
    <circle id="Ellipse_8" data-name="Ellipse 8" cx="2.644" cy="2.644" r="2.644" transform="translate(2428.129 1372.505)" fill="#fff"/>
    <path id="Path_6" data-name="Path 6" d="M811.076,1185.886l11.942,9.9" transform="translate(1620.281 179.179)" fill="none" stroke="#fff" stroke-width="1"/>
    <path id="Path_7" data-name="Path 7" d="M0,0,11.942,9.9" transform="translate(2442.318 1364.79) rotate(98)" fill="none" stroke="#fff" stroke-width="1"/>
  </g>
</svg>
