<svg xmlns="http://www.w3.org/2000/svg" width="72.589" height="68.163" viewBox="0 0 72.589 68.163">
  <path id="gears" d="M70.313,52.226H62.658a13.149,13.149,0,0,1-2.694,4.536l3.331,5.883a2.268,2.268,0,0,1,.177,1.7,2.422,2.422,0,0,1-.956,1.347l-3.756,2.2a2.184,2.184,0,0,1-1.631.212,1.908,1.908,0,0,1-1.276-1.062l-3.4-5.954a11.6,11.6,0,0,1-5.1,0l-3.4,5.954A1.9,1.9,0,0,1,42.666,68.1a2.2,2.2,0,0,1-1.631-.212l-3.756-2.2a2.419,2.419,0,0,1-.958-1.347,2.268,2.268,0,0,1,.177-1.7l3.331-5.883a13.149,13.149,0,0,1-2.694-4.536H29.486a2.242,2.242,0,0,1-1.595-.637,2.146,2.146,0,0,1-.673-1.631V45.422a2.3,2.3,0,0,1,2.268-2.268h7.655a13.306,13.306,0,0,1,2.694-4.466L36.5,32.8a2.268,2.268,0,0,1-.177-1.7,2.419,2.419,0,0,1,.958-1.347l3.756-2.2a2.184,2.184,0,0,1,1.631-.212,1.937,1.937,0,0,1,1.276.992l3.4,6.024a11.6,11.6,0,0,1,5.1,0l3.4-6.024a1.929,1.929,0,0,1,1.276-.992,2.2,2.2,0,0,1,1.631.212l3.756,2.2A2.419,2.419,0,0,1,63.48,31.1a2.268,2.268,0,0,1-.177,1.7l-3.331,5.883a13.306,13.306,0,0,1,2.694,4.466h7.655a2.3,2.3,0,0,1,2.268,2.268v4.536a2.15,2.15,0,0,1-.673,1.631,2.231,2.231,0,0,1-1.595.637ZM49.9,43.153A4.328,4.328,0,0,0,46.674,44.5a4.451,4.451,0,0,0-1.31,3.226,4.536,4.536,0,1,0,9.073,0,4.452,4.452,0,0,0-1.31-3.226A4.328,4.328,0,0,0,49.9,43.153ZM43.1,25.008H35.44a13.149,13.149,0,0,1-2.694,4.536l3.331,5.883a2.145,2.145,0,0,1,.177,1.665,2.436,2.436,0,0,1-.956,1.383l-3.756,2.2a2.14,2.14,0,0,1-2.907-.851l-3.4-5.954a15.494,15.494,0,0,1-5.1,0l-3.4,5.954a2.14,2.14,0,0,1-2.907.851l-3.756-2.2A2.424,2.424,0,0,1,9.1,37.093a2.133,2.133,0,0,1,.181-1.665l3.331-5.883a13.149,13.149,0,0,1-2.694-4.536H2.268a2.242,2.242,0,0,1-1.595-.637A2.146,2.146,0,0,1,0,22.74V18.2a2.18,2.18,0,0,1,.673-1.595,2.18,2.18,0,0,1,1.595-.673H9.923A14.074,14.074,0,0,1,12.617,11.4L9.286,5.516a2.145,2.145,0,0,1-.177-1.665,2.126,2.126,0,0,1,.956-1.31l3.756-2.2A1.917,1.917,0,0,1,15.452.095a2.056,2.056,0,0,1,1.276,1.028l3.4,6.024a13.107,13.107,0,0,1,2.552-.284,13.107,13.107,0,0,1,2.552.284l3.4-6.024A2.056,2.056,0,0,1,29.916.095a1.907,1.907,0,0,1,1.627.248L35.3,2.54a2.124,2.124,0,0,1,.958,1.31,2.145,2.145,0,0,1-.177,1.665L32.748,11.4a14.074,14.074,0,0,1,2.694,4.536H43.1A2.3,2.3,0,0,1,45.363,18.2V22.74a2.15,2.15,0,0,1-.673,1.631A2.231,2.231,0,0,1,43.1,25.008ZM22.682,15.935a4.328,4.328,0,0,0-3.226,1.347,4.451,4.451,0,0,0-1.31,3.226,4.475,4.475,0,0,0,4.536,4.5,4.475,4.475,0,0,0,4.536-4.5,4.452,4.452,0,0,0-1.31-3.226A4.328,4.328,0,0,0,22.682,15.935Z" transform="translate(0 -0.012)" fill="#2e95ff"/>
</svg>
