<svg xmlns="http://www.w3.org/2000/svg" width="52.903" height="52.903" viewBox="0 0 52.903 52.903">
  <g id="bar-chart-fill" transform="translate(-2.25 -2.25)">
    <path id="Path_18" data-name="Path 18" d="M6.029,22.5h7.558a3.779,3.779,0,0,1,3.779,3.779V37.615a3.779,3.779,0,0,1-3.779,3.779H6.029A3.779,3.779,0,0,1,2.25,37.615V26.279A3.779,3.779,0,0,1,6.029,22.5Z" transform="translate(0 13.759)" fill="#2e95ff"/>
    <path id="Path_19" data-name="Path 19" d="M17.279,13.5h7.558a3.779,3.779,0,0,1,3.779,3.779V43.73a3.779,3.779,0,0,1-3.779,3.779H17.279A3.779,3.779,0,0,1,13.5,43.73V17.279A3.779,3.779,0,0,1,17.279,13.5Z" transform="translate(7.644 7.644)" fill="#2e95ff"/>
    <path id="Path_20" data-name="Path 20" d="M28.529,2.25h7.558a3.779,3.779,0,0,1,3.779,3.779V51.374a3.779,3.779,0,0,1-3.779,3.779H28.529a3.779,3.779,0,0,1-3.779-3.779V6.029A3.779,3.779,0,0,1,28.529,2.25Z" transform="translate(15.288 0)" fill="#2e95ff"/>
  </g>
</svg>
