<svg xmlns="http://www.w3.org/2000/svg" width="106" height="106" viewBox="0 0 106 106">
  <g id="Group_10395" data-name="Group 10395" transform="translate(9.577 -0.319)">
    <rect id="Rectangle_4022" data-name="Rectangle 4022" width="99" height="99" rx="6" transform="translate(-9.577 7.319)" fill="#004dd2"/>
    <rect id="Rectangle_4031" data-name="Rectangle 4031" width="99" height="99" rx="6" transform="translate(-2.577 0.319)" fill="#2293ee"/>
    <path id="support" d="M23.53,0a23.007,23.007,0,0,1,9.139,1.864A23.115,23.115,0,0,1,45.2,14.391a23.333,23.333,0,0,1,0,18.277A23.115,23.115,0,0,1,32.668,45.2a23.333,23.333,0,0,1-18.277,0A23.115,23.115,0,0,1,1.864,32.668a23.333,23.333,0,0,1,0-18.277A23.115,23.115,0,0,1,14.391,1.864,23.007,23.007,0,0,1,23.53,0Zm0,3.361a20.072,20.072,0,0,0-9.48,2.363l5.094,5.094a13.435,13.435,0,0,1,8.771,0l5.094-5.094a20.072,20.072,0,0,0-9.48-2.363ZM5.724,33.009l5.094-5.094a13.435,13.435,0,0,1,0-8.771L5.724,14.05a20.194,20.194,0,0,0,0,18.96ZM23.53,43.7a20.072,20.072,0,0,0,9.48-2.363l-5.094-5.094a13.435,13.435,0,0,1-8.771,0L14.05,41.334A20.072,20.072,0,0,0,23.53,43.7Zm0-10.084A10.086,10.086,0,0,0,33.613,23.53,10.086,10.086,0,0,0,23.53,13.446,10.086,10.086,0,0,0,13.446,23.53,10.086,10.086,0,0,0,23.53,33.613Zm12.71-5.7,5.094,5.094a20.194,20.194,0,0,0,0-18.96l-5.094,5.094a13.435,13.435,0,0,1,0,8.771Z" transform="translate(23.619 25.898)" fill="#fff"/>
  </g>
</svg>
