<svg id="Group_413" data-name="Group 413" xmlns="http://www.w3.org/2000/svg" width="34.189" height="34.189" viewBox="0 0 34.189 34.189">
  <path id="Path_1030" data-name="Path 1030" d="M0,0H34.189V34.189H0Z" fill="none"/>
  <path id="Path_1031" data-name="Path 1031" d="M30.491,4.057a25.561,25.561,0,0,1-4.274,1.41c-1.6-1.8-3.965-1.9-6.24-1.05a5.6,5.6,0,0,0-3.732,5.324v1.425a13.38,13.38,0,0,1-11.4-5.7s-5.958,10.589,5.7,15.67C7.881,22.914,5.221,24.112,2,23.987c4.712,2.568,9.848,3.452,14.294,2.161a15.676,15.676,0,0,0,10.9-11.029A19.716,19.716,0,0,0,27.9,9.772c0-.355,2.151-3.949,2.59-5.717Z" transform="translate(0.849 1.656)" fill="none" stroke="#0068d2" stroke-linecap="round" stroke-linejoin="round" stroke-width="1.5"/>
</svg>
